/* XPM */
static char * Max_xpm[] = {
"24 24 2 1",
" 	c None",
"#	c #BEBEBE",
"                        ",
"                        ",
"                        ",
"                        ",
"                        ",
"                        ",
"                        ",
"                        ",
"          ######        ",
"           #####        ",
"        #   ####        ",
"        ##   ###        ",
"        ###   ##        ",
"        ####   #        ",
"        #####           ",
"        ######          ",
"                        ",
"                        ",
"                        ",
"                        ",
"                        ",
"                        ",
"                        ",
"                        "};
